<?xml version="1.0" standalone="no"?>
<!DOCTYPE svg PUBLIC "-//W3C//DTD SVG 20010904//EN"
 "http://www.w3.org/TR/2001/REC-SVG-20010904/DTD/svg10.dtd">
<svg version="1.0" xmlns="http://www.w3.org/2000/svg"
 width="947.000000pt" height="625.000000pt" viewBox="154 268.5 947.000000 625.000000"
 preserveAspectRatio="xMidYMid meet">
<metadata>
Created by potrace 1.16, written by Peter Selinger 2001-2019
</metadata>
<g transform="translate(0.000000,1254.000000) scale(0.100000,-0.100000)"
fill="#86c765" stroke="none">
<path d="M4065 9531 c224 -34 443 -106 652 -216 145 -77 269 -161 459 -316 254
-205 534 -331 849 -380 121 -19 400 -16 520 5 287 51 561 172 776 342 178 141
314 241 389 286 531 320 1159 387 1709 181 672 -251 1160 -853 1267 -1563 27
-182 20 -465 -17 -650 -79 -399 -311 -861 -625 -1242 -35 -43 -64 -81 -64 -85
0 -5 14 -17 30 -27 59 -34 163 -130 220 -202 276 -347 292 -804 42 -1185 -180
-274 -501 -467 -886 -534 -402 -69 -806 -22 -1401 165 -121 37 -267 82 -325
99 -688 199 -1302 254 -1935 175 -374 -47 -657 -114 -1192 -283 -422 -132
-701 -183 -1018 -182 -274 0 -484 36 -688 120 -208 84 -357 198 -390 295 -39
114 -14 231 68 312 65 66 129 89 226 82 59 -5 81 -12 156 -55 113 -65 204
-100 323 -126 79 -18 129 -21 300 -21 289 0 430 28 950 189 692 214 1139 296
1700 312 573 15 1128 -69 1795 -273 432 -132 508 -154 622 -179 656 -147 1197
14 1279 382 21 94 10 177 -36 269 -41 83 -109 143 -227 199 -104 50 -196 127
-240 203 -64 109 -81 253 -42 359 28 74 46 101 138 198 351 370 574 752 653
1118 18 85 22 134 22 292 0 172 -3 200 -26 295 -104 415 -358 739 -727 925
-179 90 -383 136 -601 136 -169 0 -296 -20 -451 -71 -203 -67 -338 -146 -562
-327 -479 -388 -995 -570 -1552 -549 -549 20 -996 196 -1445 569 -178 148
-343 242 -535 306 -390 131 -828 84 -1162 -125 -276 -172 -470 -414 -576 -720
-60 -173 -72 -246 -71 -454 1 -154 4 -201 23 -280 90 -384 303 -750 647 -1110
141 -147 168 -197 168 -300 -2 -214 -218 -351 -412 -259 -124 58 -472 481
-661 802 -146 250 -259 536 -312 792 -30 146 -38 478 -15 633 59 398 240 778
512 1071 298 322 706 537 1144 604 142 22 398 21 555 -2z"/>
</g>
</svg>
